<?xml version="1.0" encoding="UTF-8" standalone="no"?>
<svg
   id="Componente_1_1"
   data-name="Componente 1 – 1"
   width="973.503"
   height="195.465"
   viewBox="0 0 973.503 195.465"
   version="1.1"
   sodipodi:docname="logo.svg"
   inkscape:version="1.2.1 (9c6d41e410, 2022-07-14, custom)"
   xmlns:inkscape="http://www.inkscape.org/namespaces/inkscape"
   xmlns:sodipodi="http://sodipodi.sourceforge.net/DTD/sodipodi-0.dtd"
   xmlns="http://www.w3.org/2000/svg"
   xmlns:svg="http://www.w3.org/2000/svg">
  <sodipodi:namedview
     id="namedview30"
     pagecolor="#ffffff"
     bordercolor="#666666"
     borderopacity="1.0"
     inkscape:showpageshadow="2"
     inkscape:pageopacity="0.0"
     inkscape:pagecheckerboard="0"
     inkscape:deskcolor="#d1d1d1"
     showgrid="false"
     inkscape:zoom="1.0038198"
     inkscape:cx="391.00644"
     inkscape:cy="105.09855"
     inkscape:window-width="1920"
     inkscape:window-height="1011"
     inkscape:window-x="0"
     inkscape:window-y="32"
     inkscape:window-maximized="1"
     inkscape:current-layer="Componente_1_1" />
  <defs
     id="defs13">
    <filter
       id="Caminho_426"
       x="894.251"
       y="155.349"
       width="32.44"
       height="39.165"
       filterUnits="userSpaceOnUse">
      <feOffset
         dy="3"
         input="SourceAlpha"
         id="feOffset2" />
      <feGaussianBlur
         stdDeviation="3"
         result="blur"
         id="feGaussianBlur4" />
      <feFlood
         flood-opacity="0.161"
         id="feFlood6" />
      <feComposite
         operator="in"
         in2="blur"
         id="feComposite8"
         result="result1" />
      <feComposite
         in="SourceGraphic"
         in2="result1"
         id="feComposite10" />
    </filter>
  </defs>
  <path
     id="Caminho_1"
     data-name="Caminho 1"
     d="M226.924,353.771s.352-15,18.615-15.067c7.543-.028,13.262,2.862,16.418,7.581,3.839,5.717,3.294,13.923,3.294,13.923s1.422,25.527,5.09,45.214a176.4,176.4,0,0,0,9.582,33.536s5.408-10.957,10.02-32.568,8.426-53.875,8.426-53.875,1.018-14.471,18.638-13.811,18.553,19.763,18.553,19.763,2.486,25.345,7.32,46.956,10.29,32.293,10.29,32.293,6.507-11.6,10.365-33.168,5.067-50.212,5.067-50.212.806-15.6,17.966-15.632,18.274,13.811,18.274,13.811,2.128,8.4.613,28.079c-.976,12.691-4.738,35.322-7.807,46.3-9.99,35.747-19.061,65.813-43.615,66.205-7.562.121-13.995-4.7-19.613-12.819-5.2-7.5-8.846-17.841-11.977-26.949-3.591-10.439-6.013-18.958-6.013-18.958a221.872,221.872,0,0,1-9.259,30.934c-5.31,13.651-14.162,28.065-29.631,27.792-3.234-.057-10.909-.624-18.87-10.276-6.109-7.4-13.694-22.659-17.584-34.6a305.042,305.042,0,0,1-12.366-56.278A261.617,261.617,0,0,1,226.924,353.771Z"
     transform="translate(-226.818 -297.768)"
     fill="#f6872a" />
  <path
     id="Caminho_2"
     data-name="Caminho 2"
     d="M382.49,429.79h57.491s7.466.2,10.006-4.394,2.27-14.77,2.27-14.77.81-21.774-15.313-35.133-38.584-12.626-38.584-12.626-23.26-.5-40.3,15.39-15.689,37.2-15.689,37.2l40.124-7.824s-1.078-17.559,16.163-17.9,16.355,17.9,16.355,17.9H382.49l-40.124,7.824s-.976,31.138,14.652,46.527,44.934,14.668,44.934,14.668h27.1s23.167.56,23.206-16.626-23.206-15.862-23.206-15.862H405.965s-13.2.093-18.161-3.8S382.49,429.79,382.49,429.79Z"
     transform="translate(-155.117 -282.762)"
     fill="#f6872a" />
  <path
     id="Caminho_3"
     data-name="Caminho 3"
     d="M419.121,354.378l-.24,119.528s-.257,10.89,4.341,15.149,14.586,4.19,14.586,4.19l17.669-32.113V412.5s10.784-.436,20.11,5.413c5.842,3.657,11.1,11.128,11.42,21.222.787,24.5-31.53,21.993-31.53,21.993l-17.669,32.113h34.3s52.082-2.848,51.878-54.106c-.093-23.271-11.907-39.99-27.751-49.012-18.081-10.3-40.759-10.392-40.759-10.392V354.378s.484-18-18.23-18.3S419.121,354.378,419.121,354.378Z"
     transform="translate(-107.614 -299.386)"
     fill="#f6872a" />
  <path
     id="Caminho_4"
     data-name="Caminho 4"
     d="M500,361.318s-.484-10.136,4.287-15.928,15.285-5.823,15.285-5.823h53.387s17.556-.706,27.737,9.175,10.308,17.172,10.215,25.488c-.265,23.692-20.241,36.688-20.241,36.688a84.341,84.341,0,0,1,15.416,19.719c5.7,9.961,10.845,23.5,10.431,36.151.318,27.966-17.292,25.82-17.292,25.82s-11.785-.078-16.157-19.629-10.133-33.021-17.018-38.267c-13.14-10.011-30.285-8.838-30.285-8.838v45.009s.912,21.681-17.781,21.681S500,470.883,500,470.883V394.355l35.765-2.278s5.8-.145,12.327.362c5.091.4,10.835,1.158,13.091,1.158,4.7,0,12.1-5.755,12.006-13.308s-8.534-7.537-8.534-7.537h-28.89v19.326L500,394.355Z"
     transform="translate(-57.27 -297.226)"
     fill="#353535" />
  <path
     id="Caminho_5"
     data-name="Caminho 5"
     d="M632.649,363.144c-32.091-.354-57.914,22.223-57.182,57.426s21.439,55.561,54.146,57.182,56.2-23.925,56.423-57.182-22.549-57.2-53.387-57.426l-1.689,32.212c11.1.066,17.917,11.583,17.168,25.349s-5.52,25.282-17.973,24.864-17.6-12.393-18.144-24.455,6.544-25.82,18.95-25.757Z"
     transform="translate(-10.434 -282.588)"
     fill="#353535" />
  <path
     id="Caminho_6"
     data-name="Caminho 6"
     d="M664.546,376.438V361.852s-1.248-18.605,17.25-17.816,18.358,18.513,18.358,18.513v13.889H712.82s15.552-.506,15.263,15.911-15.263,15.569-15.263,15.569H700.154v41.34s-.277,6.013,7.1,6.664c3.858.34,9.9-.049,14.971,1.374a13.837,13.837,0,0,1,10.343,13.091,16.124,16.124,0,0,1-6.8,13.525c-4.025,2.851-12.249,4.428-25.1,4.484-11.387.05-21.082-1.663-26.833-6a23.72,23.72,0,0,1-9.294-18.877v-55.6h-5.623s-13.289.126-14.013-15.641,14.013-15.839,14.013-15.839Z"
     transform="translate(32.66 -294.46)"
     fill="#353535" />
  <path
     id="Caminho_7"
     data-name="Caminho 7"
     d="M726.8,393.226s-17.541.48-17.575-14.994S726.8,363.984,726.8,363.984h36.814s22.109-.545,32.291,9.358a26.8,26.8,0,0,1,7.177,10.849,44.412,44.412,0,0,1,2.207,14.624V461s.347,16.972-14.841,16.538S773.3,465.746,773.3,465.746a39.99,39.99,0,0,1-13.063,8.8c-4.968,2.123-12.193,3.041-19.231,2.993-17.376-.118-39.969-5.626-40.213-35.939-.091-11.307,3.616-23.437,14-29.588a63.02,63.02,0,0,1,19.229-7.088,115.448,115.448,0,0,1,24.1-2.163l14.252.146V425.96s-1.046.531-6.292,1.222c-2.073.273-6.085-.1-9.949.284-2.639.26-9.452.89-14.722,3.852s-6.505,6.205-6.334,8.9,2.234,9.434,14.081,9.716c5.39.128,11.659-2.069,16.454-4.7a16.672,16.672,0,0,0,6.763-7.146V402.9a9.592,9.592,0,0,0-2.271-7.144c-2.8-2.963-10.238-2.535-10.238-2.535Z"
     transform="translate(67.361 -282.078)"
     fill="#353535" />
  <path
     id="Caminho_8"
     data-name="Caminho 8"
     d="M740.92,364.835l-7.152-25.812s35.96-10.321,67.565,9.923,36.514,50.37,36.514,50.37-24.5,6.655-24.947,6.356c0,0-6.515-22.722-26.854-35.434S740.92,364.835,740.92,364.835Z"
     transform="translate(87.827 -299.19)"
     fill="#353535" />
  <path
     id="Caminho_9"
     data-name="Caminho 9"
     d="M733.377,342.33s-7.97-25.095-7.221-25.095c0,0,56.8-14.979,105.96,14.56s58.316,79.312,58.316,79.312l-25.546,5.867s-10.389-40.336-47.792-62.948S733.377,342.33,733.377,342.33Z"
     transform="translate(83.071 -313.437)"
     fill="#353535" />
</svg>
